<?xml version="1.0" encoding="utf-8"?>
<!-- Generator: Adobe Illustrator 16.0.4, SVG Export Plug-In . SVG Version: 6.00 Build 0)  -->
<!DOCTYPE svg PUBLIC "-//W3C//DTD SVG 1.1//EN" "http://www.w3.org/Graphics/SVG/1.1/DTD/svg11.dtd">
<svg version="1.1" id="Layer_1" xmlns="http://www.w3.org/2000/svg" xmlns:xlink="http://www.w3.org/1999/xlink" x="0px" y="0px"
	 width="841.89px" height="595.28px" fill="#0b4376" viewBox="0 0 841.89 595.28" enable-background="new 0 0 841.89 595.28" xml:space="preserve">
<g>
	<path d="M623.459,401.251c39.99-32.665,51.746-68.106,52.424-69.785c26.632-66.087,7.89-142.398-51.178-188.318l0,0
		c-71.393-55.513-174.643-42.595-230.155,28.8c-55.513,71.387-42.591,174.638,28.798,230.152
		c60.569,47.09,141.653,45.229,199.475-0.101 M641.915,363.282c-49.833,64.084-142.501,75.677-206.583,25.846
		c-64.08-49.826-75.678-142.498-25.852-206.583c49.832-64.076,142.502-75.673,206.584-25.85
		C680.148,206.523,691.747,299.195,641.915,363.282L641.915,363.282z M619.697,347.01" />
	<g>
		<path stroke="#none" stroke-width="9.6146" stroke-miterlimit="10" d="M205.983,264.569h136.74
			c0.271,1.777,0.439,3.689,0.509,5.739c0.069,2.049,0.102,5.196,0.102,9.43c0,44.966-12.849,81.389-38.541,109.269
			c-25.697,27.88-58.904,41.82-99.631,41.82c-46.607,0-85.01-14.862-115.212-44.589c-30.205-29.727-45.306-67.479-45.306-113.265
			c0-45.374,15.168-82.889,45.511-112.549c30.34-29.654,68.675-44.484,115.007-44.484c24.465,0,46.878,5.125,67.242,15.375
			c20.363,10.249,38.541,25.557,54.531,45.922l-43.257,31.979c-10.797-13.391-22.139-23.062-34.029-29.007
			c-11.892-5.945-25.627-8.918-41.207-8.918c-29.657,0-53.372,9.227-71.137,27.675c-17.769,18.451-26.651,43.122-26.651,74.008
			c0,30.34,8.918,54.837,26.755,73.495c17.835,18.652,41.101,27.981,69.803,27.981c21.044,0,38.132-4.951,51.249-14.861
			c13.124-9.907,19.681-22.858,19.681-38.848v-3.279h-72.16V264.569z" />
	</g>
	<path d="M662.741,272.937c0,18.386-3.427,35.779-10.278,52.173c-6.849,16.399-16.716,30.803-29.597,43.215
		c-13.353,12.769-28.403,22.549-45.149,29.34c-16.747,6.79-34.081,10.19-51.997,10.19c-15.694,0-31.066-2.668-46.116-7.996
		c-15.049-5.327-28.837-12.969-41.368-22.925c-16.164-12.882-28.551-28.284-37.159-46.202c-8.604-17.92-12.912-37.182-12.912-57.795
		c0-18.504,3.398-35.865,10.191-52.089c6.79-16.218,16.745-30.655,29.866-43.301c12.88-12.53,27.841-22.251,44.884-29.162
		c17.041-6.911,34.577-10.366,52.614-10.366c17.916,0,35.335,3.455,52.26,10.366c16.925,6.91,31.886,16.631,44.887,29.162
		c12.999,12.646,22.896,27.113,29.688,43.389C659.349,237.216,662.741,254.551,662.741,272.937z M524.681,345.264
		c19.837,0,36.216-6.954,49.124-20.86c12.914-13.908,19.371-31.332,19.371-52.267c0-20.736-6.531-38.182-19.594-52.342
		c-13.062-14.157-29.363-21.235-48.901-21.235c-19.838,0-36.29,7.054-49.349,21.16c-13.061,14.107-19.589,31.58-19.589,52.417
		c0,21.137,6.428,38.606,19.288,52.415C487.892,338.359,504.442,345.264,524.681,345.264z"/>
	<path d="M686.958,325.084c0,0-12.213,50.066-72.658,91.889c0,0,4.282,6.987,6.724,12.179c0,0,57.691-41.791,79.063-100.404
		L686.958,325.084z" />
	<path d="M650.491,418.819c0,0,30.528-26.331,46.711-56.857l94.815,71.939c0,0,31.574,25.143,7.761,52.921
		c0,0-21.367,28.392-53.566,5.862L650.491,418.819z"/>
</g>
</svg>
