<?xml version="1.0"?>
<svg xmlns="http://www.w3.org/2000/svg" xmlns:xlink="http://www.w3.org/1999/xlink" version="1.1" id="Capa_1" x="0px" y="0px" viewBox="0 0 425 425" style="enable-background:new 0 0 425 425;" xml:space="preserve" width="512px" height="512px" class=""><g><g>
	<g>
		<path d="M385.333,17c0-9.35-7.65-17-17-17H56.667c-9.35,0-17,7.65-17,17v391c0,9.35,7.65,17,17,17h311.667c9.35,0,17-7.65,17-17    V17z M73.667,34h277.667v357H73.667V34z" data-original="#000000" class="active-path" data-old_color="#6E3434" fill="#00317A"/>
		<path d="M289,99.167H136c-9.35,0-17,7.65-17,17s7.65,17,17,17h153c9.35,0,17-7.65,17-17S298.35,99.167,289,99.167z" data-original="#000000" class="active-path" data-old_color="#6E3434" fill="#00317A"/>
		<path d="M289,189.833H136c-9.35,0-17,7.65-17,17s7.65,17,17,17h153c9.35,0,17-7.65,17-17S298.35,189.833,289,189.833z" data-original="#000000" class="active-path" data-old_color="#6E3434" fill="#00317A"/>
		<path d="M289,286.167H136c-9.35,0-17,7.65-17,17s7.65,17,17,17h153c9.35,0,17-7.65,17-17S298.35,286.167,289,286.167z" data-original="#000000" class="active-path" data-old_color="#6E3434" fill="#00317A"/>
	</g>
</g></g> </svg>
